<svg xmlns="http://www.w3.org/2000/svg" xmlns:xlink="http://www.w3.org/1999/xlink" width="1920" zoomAndPan="magnify" viewBox="0 0 1440 809.999993" height="1080" preserveAspectRatio="xMidYMid meet" version="1.0"><defs><clipPath id="ed7bf4ae13"><path d="M 542.328125 319.339844 L 687.859375 319.339844 L 687.859375 568.203125 L 542.328125 568.203125 Z M 542.328125 319.339844 " clip-rule="nonzero"/></clipPath><clipPath id="c73b923f23"><path d="M 757.183594 319.339844 L 897.671875 319.339844 L 897.671875 568 L 757.183594 568 Z M 757.183594 319.339844 " clip-rule="nonzero"/></clipPath><clipPath id="ffe0f1ea39"><path d="M 542.328125 598.476562 L 897.671875 598.476562 L 897.671875 642.316406 L 542.328125 642.316406 Z M 542.328125 598.476562 " clip-rule="nonzero"/></clipPath></defs><g clip-path="url(#ed7bf4ae13)"><path fill="#dd3e2d" d="M 542.328125 319.339844 L 687.859375 319.339844 L 687.859375 568.335938 L 542.328125 568.335938 Z M 542.328125 319.339844 " fill-opacity="1" fill-rule="nonzero"/></g><g clip-path="url(#c73b923f23)"><path fill="#dd3e2d" d="M 757.183594 319.339844 L 897.671875 319.339844 L 897.671875 567.933594 L 757.183594 567.933594 Z M 757.183594 319.339844 " fill-opacity="1" fill-rule="nonzero"/></g><g clip-path="url(#ffe0f1ea39)"><path fill="#dd3e2d" d="M 542.328125 598.476562 L 897.683594 598.476562 L 897.683594 642.316406 L 542.328125 642.316406 Z M 542.328125 598.476562 " fill-opacity="1" fill-rule="nonzero"/></g><path stroke-linecap="butt" transform="matrix(0.562032, 0, 0, 0.562032, 594.515832, 167.682067)" fill="none" stroke-linejoin="miter" d="M 73.498279 299.647844 L 73.498279 186.574605 C 73.498279 124.126817 124.123731 73.501365 186.571519 73.501365 L 259.965914 73.501365 C 322.413702 73.501365 373.039154 124.126817 373.039154 186.574605 L 373.039154 299.647844 " stroke="#dd3e2d" stroke-width="147" stroke-opacity="1" stroke-miterlimit="4"/></svg>